<svg xmlns="http://www.w3.org/2000/svg" viewBox="0 0 704.28 320.23"><defs><style>.cls-1{fill:#0d8585;}.cls-2{fill:#fff;}</style></defs><g id="Layer_2" data-name="Layer 2"><g id="Слой_1" data-name="Слой 1"><path class="cls-1" d="M63.47,74.83l4.37-1.42c-6.82-2.73-13.94-4-19.71-8.84l3.18-1.09c-8.32-2.82-17-4.63-23.83-11a9.34,9.34,0,0,1,2.11-.64c11.91-.45,23-4.14,33.72-8.95,6.71-3,13.32-6.21,19.94-9.41A22.58,22.58,0,0,1,101,32.18c6.94,2.39,13.82,5,20.73,7.46.67.25,1.36.44,2.43.78-.35-1.47-.55-2.62-.9-3.72a17,17,0,0,1,8.44-20.64,12.14,12.14,0,0,0,5.94-6.47c.58-1.43,1.61-7.87,2.67-9.59,1,1.94,2,8.64,2.73,10.26a11.21,11.21,0,0,0,5.19,5.61c7.93,4.1,11.37,11.86,9.21,20.55-.29,1.14-.37,2.33-.62,3.92,1.56-.6,2.81-1,4-1.55,7.53-3.44,15.23-6.35,23.48-7.57a18.87,18.87,0,0,1,10.91,1.59c7.44,3.45,14.8,7.08,22.32,10.32,12.17,5.23,17.9,6.58,35.62,9.12-6.95,6.5-15.68,8.47-24.75,11l3.93,1.34c-6,4.73-13,6.37-20,8.19v.5l5.38,1.41C212.68,79.49,206,80,200,82.32l3.71.81c-6.08,3.59-12.56,4.75-19,6.11l.28.41c-.35.36-.62.88-1,1.08a41.29,41.29,0,0,1-14.23,3.56c-2.26.18-4.52.31-6.78.33a4.86,4.86,0,0,0-4,2.11,13,13,0,0,0-2.22,12c2.81,10.39,5.5,20.81,8.23,31.23a8.28,8.28,0,0,1,.25,1c.32,2.38-.64,3.37-3,2.9-1.77-.35-3.5-.89-5.24-1.37-1.25-.35-2.48-.74-4-1.18-.24,2.65-.39,5.17-.72,7.67a19,19,0,0,1-3.95,9.46c-4.94,6.32-14.18,5.29-17.27-2.14-1.41-3.41-1.93-7.2-2.82-10.83-.33-1.37-.56-2.76-.9-4.48a18.56,18.56,0,0,0-3,1.42c-2.44,1.76-5.09,1.21-7.68.73-.44-.08-1-1.27-1-1.86a70.77,70.77,0,0,1,1.49-7.65c2.3-9,4.49-18,7.1-26.95,1.79-6.12-3.05-12.8-9.56-12.42a38.11,38.11,0,0,1-18.89-3.85l1-1.48C90,87.7,83.13,87.09,76.93,83.19l2.77-.71-4.46-1.75c-3-1.16-6-2.26-9-3.5a19.77,19.77,0,0,1-2.92-1.87Z"/><path class="cls-1" d="M212.27,238c.68-5.39,1.47-10.6,2-15.84,1.06-10.72,2.05-21.46,2.91-32.2.41-5,.5-5.29,5.6-5.29h45.68c3.45,0,6.91,0,10.36.07,2.48,0,3,.54,2.86,3a137.63,137.63,0,0,1-13,50.39c-.93,1.94-1.76,3.93-2.65,5.89-1.3,2.85-2.25,3.35-5.34,2.78-5.5-1-11-2-16.5-3-10-1.8-19.92-3.57-29.88-5.37C213.59,238.33,212.94,238.15,212.27,238Z"/><path class="cls-1" d="M32,184.67H60c3.15,0,3.62.56,3.95,3.72,1.63,15.22,2.28,30.54,5,45.63a11.69,11.69,0,0,1,.11,1.19c.19,2.4-.27,3.07-2.63,3.47-3.73.65-7.49,1.16-11.22,1.81-11.4,2-22.95,3.15-34.15,6.29-2.75.78-4.08.12-5.36-2.47C9.7,232.14,4.6,219.62,2.4,206.12c-1-6-1.69-12-2.32-18-.27-2.54.79-3.41,3.42-3.41Q17.75,184.65,32,184.67Z"/><path class="cls-1" d="M212.07,120.36c11.53-2.11,22.81-4.16,34.09-6.25,4.89-.9,9.77-1.86,14.65-2.79,3.07-.59,3.64-.33,5.1,2.51a139.86,139.86,0,0,1,13.7,40.6c.82,4.74,1.33,9.54,2,14.32a16.27,16.27,0,0,1,.07,2.21,2.24,2.24,0,0,1-2.32,2.39c-.45,0-.91,0-1.36,0h-55.7c-.45,0-.9,0-1.35,0-2.37-.13-3.24-1-3.42-3.32-.43-5.77-.91-11.53-1.25-17.31a226.32,226.32,0,0,0-3.63-28.66C212.37,122.79,212.23,121.5,212.07,120.36Z"/><path class="cls-1" d="M31.61,173.34h-28a8.57,8.57,0,0,1-1.68-.1A2.08,2.08,0,0,1,0,170.73c.46-4.22.8-8.45,1.31-12.67,1.45-12.18,5.56-23.54,10.59-34.63,1.47-3.24,2.66-6.61,4-9.9,1.06-2.53,2-3,4.65-2.24a282.24,282.24,0,0,0,45.52,8c2.75.27,3.22.75,2.94,3.55-.94,9.25-1.94,18.49-2.92,27.74l-1.86,17.75c-.06.57-.11,1.13-.21,1.69-.47,2.74-1.15,3.33-3.95,3.33Z"/><path class="cls-1" d="M105.36,184.67h26.32c3.26,0,3.85.6,3.85,3.89V230.8c0,3.24-.6,3.8-3.88,3.92-12.6.44-25.2.88-37.8,1.4-2.82.11-5.63.52-8.43.86-3.79.47-5-.37-5.48-4.12-1.42-10.85-2.9-21.7-4.17-32.57-.48-4.1-.52-8.26-.65-12.4-.08-2.55.67-3.21,3.41-3.21Q91.94,184.65,105.36,184.67Z"/><path class="cls-1" d="M176.56,184.67H203.2c3.08.05,3.53.4,3.37,3.43-.88,15.86-2,31.68-5.52,47.23-.32,1.43-.87,1.65-2.26,1.57-10.72-.61-21.45-1.12-32.18-1.61-5.47-.25-11-.39-16.43-.61-2.86-.11-3.53-.78-3.8-3.62a16.15,16.15,0,0,1-.1-1.7q0-20.51-.07-41c0-3.34.31-3.66,3.71-3.66Q163.24,184.65,176.56,184.67Z"/><path class="cls-1" d="M83.9,248.05c2.78-.23,5.41-.53,8-.65q10.51-.48,21-.84,9.66-.34,19.32-.59c2.72-.07,3.23.44,3.23,3.1q0,34,0,67.95c0,2.86-.85,3.32-3.54,2.55-13-3.72-21.4-12.85-28.36-23.74a144.21,144.21,0,0,1-19.36-45.61C84.11,249.57,84,248.9,83.9,248.05Z"/><path class="cls-1" d="M146.17,282.43V249.91c0-.34,0-.68,0-1,.13-2.23.83-3,3-2.92,6.27.16,12.54.38,18.81.6q10.94.38,21.86.8c2,.08,4.06.24,6.09.45,1.39.15,2,.91,1.53,2.37-5.55,19.49-12.88,38.11-25.93,54-5.18,6.28-11.18,11.54-18.66,14.93a13.51,13.51,0,0,1-3.2,1.06,2.39,2.39,0,0,1-3.18-2.17,21.11,21.11,0,0,1-.35-3.72q0-15.92,0-31.83Z"/><path class="cls-1" d="M104.05,315c-4.43,0-8.45-1.3-12.41-2.82-12.37-4.73-23.36-11.88-34-19.59-9.57-6.93-18.56-14.53-26-23.8-2.79-3.47-5.66-6.94-7.42-11.49,4.19-.93,8.26-2,12.4-2.72,10.88-1.75,21.8-3.29,32.7-4.92,2.41-.37,2.91,0,3.78,2.48,3,8.78,5.94,17.61,9.15,26.32a107.1,107.1,0,0,0,21,35.07,11.07,11.07,0,0,1,.73.93C104,314.52,104,314.65,104.05,315Z"/><path class="cls-1" d="M167.43,123.27c3-.31,5.73-.66,8.48-.86,7-.51,14-1,21-1.4,3.09-.2,4.3.77,4.67,3.83q1.88,15.79,3.67,31.6c.52,4.51,1,9,1.53,13.53.3,2.57-.33,3.37-2.88,3.37H150.74c-2.07,0-4.63-1-4.34-2.56a9.78,9.78,0,0,1,1.2-3.37,7.36,7.36,0,0,1,2.18-1.86,19.22,19.22,0,0,0,7.81-11.36c.87-3.37,1-3.34,4.37-3.56a16,16,0,0,0,8.07-2.82c2.41-1.62,2.87-2.81,2.14-5.62-1.43-5.48-2.89-11-4.31-16.44C167.67,125.05,167.61,124.31,167.43,123.27Z"/><path class="cls-1" d="M178.19,314.49c1.75-2.5,3.43-5.05,5.25-7.51C195.27,291,202.82,273,208,254c1.25-4.6,1.75-4.86,6.4-4.06,13,2.24,26,4.42,38.92,6.65,1.44.25,2.85.68,4.61,1.1C237.92,286.15,211.93,305.72,178.19,314.49Z"/><path class="cls-1" d="M113.19,123.36c-1.65,6.56-3.28,12.86-4.83,19.18-.81,3.3-.24,4.45,2.92,5.62a74,74,0,0,0,7.76,2.39,4.77,4.77,0,0,1,4,3.67c1.45,5.87,4.59,10.41,10.12,13.13a4.5,4.5,0,0,1,2,4.37,2.1,2.1,0,0,1-1.18,1.23,8.54,8.54,0,0,1-2.67.38q-26.39,0-52.79.06c-3.15,0-3.52-.41-3.32-3.59.92-14.49,1.84-29,4.48-43.29.17-.94.34-1.89.57-2.83.54-2.18,1.4-2.79,3.64-2.64q13.62,1,27.24,1.95C111.75,123,112.4,123.22,113.19,123.36Z"/><path class="cls-1" d="M257.47,101c-7,1.34-13.67,2.76-20.4,3.87-8.14,1.35-16.31,2.45-24.48,3.63-2.3.33-3.35-.35-4-2.61-1.29-4.22-2.54-8.45-3.78-12.69-.59-2-.25-2.81,1.56-4q12.13-7.81,24.25-15.63a3.09,3.09,0,0,1,4.16.28A122.5,122.5,0,0,1,256.16,98.1,20.54,20.54,0,0,1,257.47,101Z"/><path class="cls-1" d="M23.53,100.35c1.92-2.5,3.51-4.84,5.37-6.95,5.24-6,10.58-11.8,15.89-17.69.26-.3.52-.6.81-.88,2.62-2.53,4.31-2.67,6.78,0,4.07,4.35,9,7.24,14.34,9.75,3.24,1.53,6.12,3.82,9.16,5.77A2.16,2.16,0,0,1,76.81,93q-2,7-4.12,14c-.43,1.48-1.49,1.84-2.9,1.65-6-.83-12.12-1.45-18.13-2.51-8.61-1.52-17.17-3.36-25.75-5.07C25.25,101,24.62,100.69,23.53,100.35Z"/><path class="cls-1" d="M169.55,111.72h-1.69c-3.75,0-3.84-.07-4.67-3.82-.13-.6-.27-1.21-.39-1.82-.78-3.74.41-5,4.13-5.4a100.72,100.72,0,0,0,13.53-2c3.31-.78,6.43-2.4,9.59-3.74,2.34-1,3.18-.75,3.94,1.64q1.72,5.41,3.32,10.87c.56,1.93.07,2.65-1.71,2.84-.16,0-.33,0-.5,0l-25.55,1.43Z"/><path class="cls-1" d="M88.21,94.11c3.32,1.37,6.45,2.78,9.67,4,4.75,1.79,9.76,2.31,14.79,2.69,3.7.28,5.49,2.15,5.3,5.59a5.56,5.56,0,0,1-6,5.22q-12.36-.61-24.72-1.29c-2.66-.15-3.41-1.19-2.68-3.72C85.79,102.41,87,98.25,88.21,94.11Z"/><path class="cls-2" d="M364.64,32.29a53.66,53.66,0,0,1,25,5.73,45,45,0,0,1,24.27,40.13A44.91,44.91,0,0,1,389.81,118a56.49,56.49,0,0,1-50.53-.09,44.23,44.23,0,0,1-24-39.79,45,45,0,0,1,6.33-23.09,44,44,0,0,1,17.47-16.79Q350.18,32.28,364.64,32.29ZM333.11,78.15a31.77,31.77,0,0,0,4,16,28,28,0,0,0,11.22,11,33.63,33.63,0,0,0,16.28,3.9q13.75,0,22.61-8.64t8.86-22.26a32.15,32.15,0,0,0-4-16,27.66,27.66,0,0,0-11.25-11,36,36,0,0,0-32.69,0,27.31,27.31,0,0,0-11.16,11A32.59,32.59,0,0,0,333.11,78.15Z"/><path class="cls-2" d="M477,32.29a78,78,0,0,1,30.56,6.4A3.61,3.61,0,0,1,509.71,42v10.5a1.83,1.83,0,0,1-2.62,1.64,68.87,68.87,0,0,0-29.36-7,37.53,37.53,0,0,0-17.4,3.91,28,28,0,0,0-11.8,11.22,32.34,32.34,0,0,0-4.19,16.34q0,13.7,9.12,22t24,8.35a42.34,42.34,0,0,0,7.84-.71A49.39,49.39,0,0,0,493,106.1a1.83,1.83,0,0,0,1.19-1.71V92.64a1.81,1.81,0,0,0-1.82-1.82H483.1a3.64,3.64,0,0,1-3.64-3.64v-8a1.82,1.82,0,0,1,1.82-1.82h26.58A3.64,3.64,0,0,1,511.5,81V112.2a3.58,3.58,0,0,1-1.63,3,53.74,53.74,0,0,1-14.2,6.11A70.76,70.76,0,0,1,476.45,124a55.88,55.88,0,0,1-25.62-5.82,43.57,43.57,0,0,1-24.34-39.72A44.58,44.58,0,0,1,433,54.68a44,44,0,0,1,18.1-16.5A56.3,56.3,0,0,1,477,32.29Z"/><path class="cls-2" d="M542.92,33.44a3.63,3.63,0,0,1,3.63,3.64V85.44q0,8,2.4,12.73a18.78,18.78,0,0,0,7.84,7.81,25.38,25.38,0,0,0,12.66,3.07,28.65,28.65,0,0,0,13.47-2.91A18.36,18.36,0,0,0,591,98.21q2.57-5,2.56-13.92V37.08a3.64,3.64,0,0,1,3.64-3.64h10a3.64,3.64,0,0,1,3.64,3.64V86.53q0,18-10.81,27.73T569.45,124q-12.41,0-21.52-4.41A31.35,31.35,0,0,1,534,106.78a38.67,38.67,0,0,1-4.8-19.61V37.08a3.64,3.64,0,0,1,3.64-3.64Z"/><path class="cls-2" d="M701.44,36.29l-48.16,70.16a1.82,1.82,0,0,0,1.5,2.85H700a3.64,3.64,0,0,1,3.64,3.64v6.22A3.64,3.64,0,0,1,700,122.8H625.1a1.82,1.82,0,0,1-1.5-2.85l48.1-70.16a1.82,1.82,0,0,0-1.5-2.85H628.42a3.64,3.64,0,0,1-3.64-3.64V37.08a3.64,3.64,0,0,1,3.64-3.64h71.52A1.82,1.82,0,0,1,701.44,36.29Z"/><path class="cls-2" d="M703.94,146.25v6.22a3.64,3.64,0,0,1-3.64,3.63H378.87a3.64,3.64,0,0,0-3.64,3.64v68.59a3.64,3.64,0,0,1-3.64,3.64h-10a3.64,3.64,0,0,1-3.64-3.64V159.74a3.64,3.64,0,0,0-3.64-3.64H329.88a3.64,3.64,0,0,1-3.64-3.63v-6.22a3.64,3.64,0,0,1,3.64-3.64H700.3A3.64,3.64,0,0,1,703.94,146.25Z"/><path class="cls-2" d="M439.64,169.42q8.82,0,14.37,4.87A16.16,16.16,0,0,1,459.56,187a15.84,15.84,0,0,1-2.75,9.29,18.27,18.27,0,0,1-8.17,6.25,18.18,18.18,0,0,1,5.33,4.39,56.66,56.66,0,0,1,5.77,9.35q4.25,8.42,6.86,13A1.82,1.82,0,0,1,465,232h-8.23a3.63,3.63,0,0,1-3.13-1.78c-.74-1.26-1.63-2.86-2.65-4.81a143.33,143.33,0,0,0-7.61-13.45,18.17,18.17,0,0,0-4.66-4.93,9.31,9.31,0,0,0-5.15-1.45H431a1.81,1.81,0,0,0-1.82,1.82v21a3.64,3.64,0,0,1-3.64,3.64h-4.81a3.64,3.64,0,0,1-3.64-3.64V173.05a3.63,3.63,0,0,1,3.64-3.63Zm-2.73,26.68a10.92,10.92,0,0,0,7.45-2.37,8.18,8.18,0,0,0,2.71-6.5c0-2.86-.89-5-2.69-6.42s-4.34-2.13-7.65-2.13h-3.88a3.64,3.64,0,0,0-3.64,3.64v12A1.81,1.81,0,0,0,431,196.1Z"/><path class="cls-2" d="M508.83,171.58l25.55,57.83a1.83,1.83,0,0,1-1.67,2.56h-7.56a3.63,3.63,0,0,1-3.35-2.22l-5.08-11.9a1.81,1.81,0,0,0-1.67-1.11H489.68a1.81,1.81,0,0,0-1.69,1.15l-4.68,11.78a3.63,3.63,0,0,1-3.38,2.3h-7.48a1.83,1.83,0,0,1-1.69-2.52l23.83-57.78a3.62,3.62,0,0,1,3.36-2.25h7.56A3.63,3.63,0,0,1,508.83,171.58Zm-14.06,36h14.78a1.82,1.82,0,0,0,1.68-2.53l-7.74-18.12a1.82,1.82,0,0,0-3.37.05l-7,18.12A1.82,1.82,0,0,0,494.77,207.56Z"/><path class="cls-2" d="M542.77,171.59l15,34.16a1.82,1.82,0,0,0,3.34,0l14.64-34.11a3.64,3.64,0,0,1,3.35-2.2h7.49A1.82,1.82,0,0,1,588.3,172l-26,59.72a1.82,1.82,0,0,1-1.67,1.09h-1.84a1.84,1.84,0,0,1-1.66-1.07L530.21,172a1.82,1.82,0,0,1,1.66-2.56h7.57A3.64,3.64,0,0,1,542.77,171.59Z"/><path class="cls-2" d="M637.19,173.05v2.17a3.64,3.64,0,0,1-3.64,3.64H612.48a3.64,3.64,0,0,0-3.64,3.64v11a1.82,1.82,0,0,0,1.82,1.82h21.68a3.64,3.64,0,0,1,3.64,3.64v2.17a3.64,3.64,0,0,1-3.64,3.64H610.66a1.83,1.83,0,0,0-1.82,1.82v12.32a3.64,3.64,0,0,0,3.64,3.64h21.69a3.64,3.64,0,0,1,3.64,3.64v2.17a3.64,3.64,0,0,1-3.64,3.64H600.39a3.64,3.64,0,0,1-3.64-3.64V173.05a3.63,3.63,0,0,1,3.64-3.63h33.16A3.63,3.63,0,0,1,637.19,173.05Z"/><path class="cls-2" d="M661.19,173.05v45.83a3.63,3.63,0,0,0,3.63,3.64H687.9a3.64,3.64,0,0,1,3.64,3.64v2.17A3.64,3.64,0,0,1,687.9,232H652.74a3.64,3.64,0,0,1-3.64-3.64V173.05a3.63,3.63,0,0,1,3.64-3.63h4.81A3.63,3.63,0,0,1,661.19,173.05Z"/><path class="cls-2" d="M338.46,255.67l-10.7,12.75v14.79h-2.13V268.42l-10.71-12.75h2.57l9.21,10.91,9.16-10.91Z"/><path class="cls-2" d="M343.75,264.72a8.8,8.8,0,0,1,6.57,2.7,9.91,9.91,0,0,1,0,13.45,9.38,9.38,0,0,1-13.17,0,9.86,9.86,0,0,1,0-13.45A8.88,8.88,0,0,1,343.75,264.72Zm0,16.95a6.76,6.76,0,0,0,5.1-2.14,8.06,8.06,0,0,0,0-10.75,6.72,6.72,0,0,0-5.09-2.17,6.84,6.84,0,0,0-5.14,2.15,8.07,8.07,0,0,0,0,10.77A6.83,6.83,0,0,0,343.75,281.67Z"/><path class="cls-2" d="M370,283.21v-3h-.08a8.57,8.57,0,0,1-2.59,2.59,6.73,6.73,0,0,1-3.38.77,6.58,6.58,0,0,1-4.83-1.9,7.19,7.19,0,0,1-1.92-5.36V265.07h1.94v11.2a5.49,5.49,0,0,0,1.38,4,4.73,4.73,0,0,0,3.58,1.44,5.85,5.85,0,0,0,3.23-.86,9.6,9.6,0,0,0,2.67-3V265.07h1.93v18.14Z"/><path class="cls-2" d="M388.9,255.67h9.64q7.32,0,11.17,3.84a14.72,14.72,0,0,1,0,19.81q-3.81,3.89-10.84,3.89h-10Zm2.13,1.77v24h7.77a12.62,12.62,0,0,0,8.9-3.29,11.29,11.29,0,0,0,3.56-8.7,11.45,11.45,0,0,0-3.51-8.66,12.64,12.64,0,0,0-9.09-3.35Z"/><path class="cls-2" d="M430.66,266.87l-1.12,1.81c-1.52-1.38-2.73-2.07-3.65-2.07-1.82,0-3.75,1.73-5.82,5.2v11.4h-1.93V265.07h1.93v4.77h.08c2.17-3.42,4.29-5.12,6.35-5.12C427.68,264.72,429.07,265.43,430.66,266.87Z"/><path class="cls-2" d="M447,273.47h-14.3a7.57,7.57,0,0,0-.06.95,6.88,6.88,0,0,0,2.17,5.14,7.09,7.09,0,0,0,5.13,2.11,10.57,10.57,0,0,0,6.74-2.7v2.19a11.16,11.16,0,0,1-7,2.41,8.52,8.52,0,0,1-6.49-2.73,9.67,9.67,0,0,1-2.56-6.92,9.44,9.44,0,0,1,2.37-6.59,8.09,8.09,0,0,1,11.65-.26A8.72,8.72,0,0,1,447,273.47Zm-14-1.56h11.75q-1-5.3-5.74-5.3a5.7,5.7,0,0,0-3.85,1.39A6.76,6.76,0,0,0,433,271.91Z"/><path class="cls-2" d="M465.38,280.06v1.61c-1.67,1.26-2.89,1.9-3.67,1.9a1,1,0,0,1-.92-.45,5,5,0,0,1-.38-1.8,9.19,9.19,0,0,1-5.68,2.25,4.86,4.86,0,0,1-3.47-1.35,4.31,4.31,0,0,1-1.42-3.25,5.26,5.26,0,0,1,2.75-4.66,16.4,16.4,0,0,1,7.82-2V270q0-3.71-4-3.71a9.27,9.27,0,0,0-5.54,2.31v-2a11,11,0,0,1,5.86-1.93,6.53,6.53,0,0,1,4.06,1.21,4.16,4.16,0,0,1,1.59,3.52v11.3c0,.61.15.92.44.92A7.08,7.08,0,0,0,465.38,280.06Zm-5-.44V274a11.24,11.24,0,0,0-6.18,1.31,4.24,4.24,0,0,0-2.45,3.7,2.7,2.7,0,0,0,1,2.13,3.85,3.85,0,0,0,2.57.87A7.57,7.57,0,0,0,460.41,279.62Z"/><path class="cls-2" d="M470,265.07v3.2h.07c1.48-2.37,3.4-3.55,5.78-3.55q4.17,0,5.86,4.35,2.56-4.35,6.31-4.35a5.71,5.71,0,0,1,4.55,2,7.87,7.87,0,0,1,1.74,5.34v11.14h-1.94V272.92a7.66,7.66,0,0,0-1.24-4.63,4.09,4.09,0,0,0-3.49-1.68,4.52,4.52,0,0,0-2.92,1,12.22,12.22,0,0,0-2.56,3.24v12.36h-1.95V272.88a7.3,7.3,0,0,0-1.29-4.64,4.18,4.18,0,0,0-3.46-1.63q-3.17,0-5.46,3.88v12.72H468V265.07Z"/><path class="cls-2" d="M512.74,255.67V259h-1.95v-3.31Zm0,9.4v18.14h-1.95V265.07Z"/><path class="cls-2" d="M521.62,259.06v6h5.08v1.58h-5.08v10.78a8.83,8.83,0,0,0,.42,3.42c.28.55,1,.82,2.28.82a8,8,0,0,0,3.31-.88v1.85a8.54,8.54,0,0,1-3.75.93,4.47,4.47,0,0,1-3-1,3.51,3.51,0,0,1-1.21-2.84V266.65h-4.89v-1.58h4.89v-4.32l1.32-1.69Z"/><path class="cls-2" d="M532.64,279.29v3.07a6.6,6.6,0,0,1-2.62,5.58v-1.42a5.64,5.64,0,0,0,.84-3.31H530v-3.92Z"/><path class="cls-2" d="M559.68,260.24l-9.23,23.25h-.58l-11.08-27.82H541l9.13,22.85,9.24-22.85H560l9.2,22.85,9.15-22.85h2.18l-11.11,27.82h-.51Z"/><path class="cls-2" d="M595.59,273.47H581.3a7.57,7.57,0,0,0-.06.95,6.88,6.88,0,0,0,2.17,5.14,7.09,7.09,0,0,0,5.13,2.11,10.57,10.57,0,0,0,6.74-2.7v2.19a11.16,11.16,0,0,1-7,2.41,8.52,8.52,0,0,1-6.49-2.73,9.67,9.67,0,0,1-2.56-6.92,9.44,9.44,0,0,1,2.37-6.59,8.09,8.09,0,0,1,11.65-.26A8.72,8.72,0,0,1,595.59,273.47Zm-14-1.56h11.75q-1-5.3-5.74-5.3a5.7,5.7,0,0,0-3.85,1.39A6.76,6.76,0,0,0,581.56,271.91Z"/><path class="cls-2" d="M611.35,255.67h7.59q4.37,0,6.67,2a6.57,6.57,0,0,1,2.32,5.32,6.7,6.7,0,0,1-2.34,5.4c-1.55,1.33-3.84,2-6.85,2h-5.26v12.87h-2.13Zm2.13,1.77v11.12h5.12a8.17,8.17,0,0,0,5.25-1.46,5,5,0,0,0,1.79-4.12,5,5,0,0,0-1.75-4,7.53,7.53,0,0,0-5-1.5Z"/><path class="cls-2" d="M633.55,255.67v27.54H631.6V255.67Z"/><path class="cls-2" d="M653.37,280.06v1.61c-1.67,1.26-2.9,1.9-3.67,1.9a1,1,0,0,1-.93-.45,5.08,5.08,0,0,1-.37-1.8,9.21,9.21,0,0,1-5.68,2.25,4.85,4.85,0,0,1-3.47-1.35,4.28,4.28,0,0,1-1.42-3.25,5.25,5.25,0,0,1,2.74-4.66,16.48,16.48,0,0,1,7.83-2V270q0-3.71-4-3.71a9.32,9.32,0,0,0-5.55,2.31v-2a11.1,11.1,0,0,1,5.86-1.93,6.51,6.51,0,0,1,4.06,1.21,4.14,4.14,0,0,1,1.6,3.52v11.3c0,.61.14.92.43.92A7.16,7.16,0,0,0,653.37,280.06Zm-5-.44V274a11.2,11.2,0,0,0-6.18,1.31,4.26,4.26,0,0,0-2.46,3.7,2.68,2.68,0,0,0,1,2.13,3.8,3.8,0,0,0,2.56.87A7.58,7.58,0,0,0,648.4,279.62Z"/><path class="cls-2" d="M658,265.07v3.16h.08a6.85,6.85,0,0,1,6-3.51,6.36,6.36,0,0,1,4.91,2,7.71,7.71,0,0,1,1.84,5.46v11.06H668.9V272.88q0-6.27-4.93-6.27-3.6,0-5.93,3.88v12.72h-1.93V265.07Z"/><path class="cls-2" d="M689.39,255.67V259h-1.95v-3.31Zm0,9.4v18.14h-1.95V265.07Z"/><path class="cls-2" d="M698.26,259.06v6h5.09v1.58h-5.09v10.78a8.58,8.58,0,0,0,.43,3.42c.28.55,1,.82,2.27.82a8.06,8.06,0,0,0,3.32-.88v1.85a8.57,8.57,0,0,1-3.75.93,4.48,4.48,0,0,1-3-1,3.53,3.53,0,0,1-1.2-2.84V266.65h-4.89v-1.58h4.89v-4.32l1.32-1.69Z"/></g></g></svg>